<svg width="18" height="18" viewBox="0 0 18 18" fill="none" xmlns="http://www.w3.org/2000/svg">
<g clip-path="url(#clip0_68:80)">
<path d="M10.2154 17.9648H7.32717C6.84476 17.9648 6.45233 17.5732 6.45233 17.0917V10.59H4.7673C4.28489 10.59 3.89246 10.1982 3.89246 9.71686V6.93086C3.89246 6.44939 4.28489 6.05772 4.7673 6.05772H6.45233V4.6626C6.45233 3.27928 6.88755 2.10237 7.7108 1.25931C8.53776 0.412399 9.69344 -0.0351562 11.0529 -0.0351562L13.2556 -0.0315857C13.7372 -0.0307617 14.1289 0.360901 14.1289 0.841553V3.42828C14.1289 3.90976 13.7366 4.30142 13.2543 4.30142L11.7713 4.30197C11.319 4.30197 11.2039 4.39247 11.1792 4.42021C11.1386 4.46622 11.0903 4.59627 11.0903 4.95538V6.05759H13.1429C13.2974 6.05759 13.4471 6.09563 13.5758 6.16731C13.8533 6.32208 14.0259 6.61473 14.0259 6.931L14.0247 9.717C14.0247 10.1982 13.6323 10.5899 13.1499 10.5899H11.0903V17.0917C11.0903 17.5732 10.6978 17.9648 10.2154 17.9648V17.9648ZM7.50963 16.9096H10.0329V10.1176C10.0329 9.7961 10.295 9.53462 10.617 9.53462H12.9674L12.9684 7.11296H10.6169C10.2949 7.11296 10.0329 6.85149 10.0329 6.53V4.95538C10.0329 4.54312 10.0749 4.07428 10.3867 3.72189C10.7634 3.2959 11.3571 3.24673 11.771 3.24673L13.0716 3.24619V1.02338L11.0521 1.02008C8.86731 1.02008 7.50963 2.41589 7.50963 4.6626V6.53C7.50963 6.85135 7.24764 7.11296 6.92566 7.11296H4.94976V9.53462H6.92566C7.24764 9.53462 7.50963 9.7961 7.50963 10.1176V16.9096ZM13.2535 1.02365H13.2537H13.2535Z" fill="#4477C2"/>
</g>
<defs>
<clipPath id="clip0_68:80">
<rect width="18" height="18" fill="white"/>
</clipPath>
</defs>
</svg>
