<svg width="18" height="22" viewBox="0 0 18 22" fill="none" xmlns="http://www.w3.org/2000/svg">
<path d="M9.00034 3.33643C6.35627 3.33643 4.20508 5.48753 4.20508 8.1316C4.20508 10.7757 6.35627 12.9268 9.00034 12.9268C11.6444 12.9268 13.7956 10.7757 13.7956 8.1316C13.7956 5.48753 11.6444 3.33643 9.00034 3.33643ZM9.00034 11.6369C7.06746 11.6369 5.49487 10.0644 5.49487 8.13151C5.49487 6.19864 7.06746 4.62621 9.00034 4.62621C10.9332 4.62621 12.5058 6.19872 12.5058 8.1316C12.5058 10.0645 10.9333 11.6369 9.00034 11.6369Z" fill="#797979"/>
<path d="M9.00017 0C4.51653 0 0.868835 3.64769 0.868835 8.13134C0.868835 10.7171 3.0374 14.5695 4.33002 16.6357C5.18051 17.995 6.09445 19.2888 6.90341 20.2785C8.20188 21.867 8.66664 21.9999 9.00026 21.9999C9.33887 21.9999 9.77766 21.8669 11.0721 20.2775C11.8829 19.2819 12.7972 17.9889 13.6469 16.6367C14.9483 14.5655 17.1316 10.7062 17.1316 8.13125C17.1316 3.64769 13.4839 0 9.00017 0ZM12.7527 15.6325C11.0849 18.3396 9.55375 20.1688 8.99252 20.6358C8.42837 20.1832 6.92207 18.3974 5.23098 15.641C3.2785 12.4582 2.15871 9.72105 2.15871 8.13134C2.15862 4.35888 5.22772 1.28979 9.00017 1.28979C12.7726 1.28979 15.8417 4.35888 15.8417 8.13134C15.8418 9.71193 14.7158 12.4459 12.7527 15.6325Z" fill="#797979"/>
</svg>
