<svg width="18" height="17" viewBox="0 0 18 17" fill="none" xmlns="http://www.w3.org/2000/svg">
<path d="M7.99282 0.166969C4.75022 0.57112 2.12495 2.6432 1.05275 5.65829C0.376934 7.5315 0.467908 9.77678 1.27368 11.5794C1.40365 11.8617 1.54011 12.1696 1.5726 12.2594C1.63109 12.3941 1.5791 12.6443 1.27368 13.69C1.07224 14.3828 0.909786 15.0307 0.909786 15.127C0.909786 15.3451 1.11123 15.7813 1.27368 15.9224C1.43614 16.0636 1.83903 16.2304 2.02748 16.2304C2.11195 16.2304 2.76827 16.07 3.48957 15.8711L4.8022 15.5055L5.37405 15.7621C6.6282 16.333 7.51195 16.519 8.93506 16.519C10.0852 16.5126 10.6766 16.4164 11.6318 16.0892C15.4008 14.7741 17.7011 11.047 17.1293 7.18508C16.6159 3.72735 14.0361 1.03301 10.5271 0.28244C10.0527 0.186214 8.46069 0.109234 7.99282 0.166969ZM10.0268 1.05867C14.0946 1.66169 16.8953 5.42093 16.278 9.44961C16.0376 11.0277 15.3163 12.4198 14.1401 13.5681C11.8073 15.8519 8.4087 16.3523 5.39354 14.8511C4.8347 14.5753 5.02314 14.5496 3.19715 15.0756L2.00798 15.4221L1.87152 15.2809L1.73506 15.1462L2.14444 13.7349L2.55383 12.3236L2.22892 11.6307C1.69607 10.5145 1.51412 9.79602 1.45563 8.62848C1.37116 7.0247 1.89751 5.31187 2.87874 3.98395C3.29462 3.41301 4.16538 2.59829 4.76971 2.21338C6.38776 1.16772 8.16177 0.782818 10.0268 1.05867Z" fill="#4477C2"/>
<path d="M5.81597 4.0992C5.14015 4.42637 4.71777 4.92034 4.50983 5.61958C4.30839 6.31883 4.47734 7.67883 4.90622 8.71166C5.41958 9.9626 6.49828 11.1686 7.73293 11.8871C8.66218 12.426 9.53943 12.689 10.6246 12.7468C11.4044 12.7917 11.8658 12.6826 12.3856 12.3426C12.9965 11.9449 13.4254 11.2007 13.3734 10.6426C13.3279 10.2192 13.1524 10.0139 12.2232 9.32109C11.6059 8.85279 11.3849 8.72449 11.151 8.69241C10.7741 8.63468 10.3972 8.80147 10.0138 9.19279L9.72788 9.48788L9.41597 9.366C8.74015 9.11581 8.11633 8.49996 7.8629 7.83279L7.73943 7.52486L8.03835 7.2426C8.43474 6.86411 8.60369 6.49203 8.54521 6.11996C8.51272 5.88902 8.38275 5.6709 7.90839 5.06147C7.19358 4.12486 6.99864 3.96449 6.54376 3.93241C6.27084 3.91317 6.13438 3.93883 5.81597 4.0992ZM6.64124 4.82411C6.80369 4.95883 7.73293 6.19053 7.73293 6.28034C7.73293 6.32524 7.53799 6.5626 7.30405 6.80637L6.86867 7.24902L6.90766 7.56977C7.05062 8.76298 8.47373 10.1679 9.68239 10.309L10.0073 10.3475L10.4557 9.91769C10.7026 9.68675 10.943 9.4943 10.9885 9.4943C11.1315 9.4943 12.4766 10.5464 12.5156 10.6875C12.6001 11.0211 12.0867 11.6305 11.5409 11.8358C11.177 11.9705 10.3582 11.9449 9.63691 11.7717C9.12355 11.6434 8.26579 11.2649 7.81741 10.9634C7.36254 10.6618 6.66073 9.97543 6.32932 9.51354C5.52355 8.41015 5.06218 6.66524 5.3416 5.76713C5.43257 5.45279 5.78997 5.03581 6.10189 4.87543C6.38131 4.72788 6.50478 4.72147 6.64124 4.82411Z" fill="#4477C2"/>
</svg>
