<svg width="24" height="18" viewBox="0 0 24 18" fill="none" xmlns="http://www.w3.org/2000/svg">
<path d="M22.8 0.600098H1.2C0.537255 0.600098 5.2451e-06 1.13735 5.2451e-06 1.8001V16.2001C-0.000744754 16.4522 0.0789552 16.698 0.227605 16.9017C0.452905 17.2143 0.814655 17.3997 1.2 17.4001H22.8C23.1848 17.3998 23.5461 17.2151 23.7716 16.9033C23.9206 16.6991 24.0006 16.4528 24 16.2001V1.8001C24 1.13735 23.4627 0.600098 22.8 0.600098ZM0.800005 15.9709V3.2305L9.046 9.6001L0.800005 15.9709ZM1.294 16.6001L9.7 10.1057L11.2668 11.3153C11.6987 11.6487 12.3012 11.6487 12.7332 11.3153L14.3 10.1057L22.706 16.6001H1.294ZM23.2 15.9709L14.954 9.6001L23.2 3.2305V15.9709ZM23.2 2.2197L12.2444 10.6821C12.1004 10.7932 11.8996 10.7932 11.7556 10.6821L0.800005 2.2197V1.8001C0.800005 1.5792 0.979105 1.4001 1.2 1.4001H22.8C23.0209 1.4001 23.2 1.5792 23.2 1.8001V2.2197Z" fill="#4477C2"/>
</svg>
