<svg width="12" height="18" viewBox="0 0 12 18" fill="none" xmlns="http://www.w3.org/2000/svg">
<path d="M7.21535 17.9648H4.32717C3.84476 17.9648 3.45233 17.5732 3.45233 17.0917V10.59H1.7673C1.28489 10.59 0.892456 10.1982 0.892456 9.71686V6.93086C0.892456 6.44939 1.28489 6.05772 1.7673 6.05772H3.45233V4.6626C3.45233 3.27928 3.88755 2.10237 4.7108 1.25931C5.53776 0.412399 6.69344 -0.0351562 8.05291 -0.0351562L10.2556 -0.0315857C10.7372 -0.0307617 11.1289 0.360901 11.1289 0.841553V3.42828C11.1289 3.90976 10.7366 4.30142 10.2543 4.30142L8.77131 4.30197C8.31903 4.30197 8.20386 4.39247 8.17923 4.42021C8.13863 4.46622 8.09034 4.59627 8.09034 4.95538V6.05759H10.1429C10.2974 6.05759 10.4471 6.09563 10.5758 6.16731C10.8533 6.32208 11.0259 6.61473 11.0259 6.931L11.0247 9.717C11.0247 10.1982 10.6323 10.5899 10.1499 10.5899H8.09034V17.0917C8.09034 17.5732 7.69777 17.9648 7.21535 17.9648ZM4.50963 16.9096H7.0329V10.1176C7.0329 9.7961 7.29502 9.53462 7.617 9.53462H9.96745L9.96841 7.11296H7.61686C7.29488 7.11296 7.0329 6.85149 7.0329 6.53V4.95538C7.0329 4.54312 7.07487 4.07428 7.38666 3.72189C7.76341 3.2959 8.35714 3.24673 8.77103 3.24673L10.0716 3.24619V1.02338L8.05209 1.02008C5.86731 1.02008 4.50963 2.41589 4.50963 4.6626V6.53C4.50963 6.85135 4.24764 7.11296 3.92566 7.11296H1.94976V9.53462H3.92566C4.24764 9.53462 4.50963 9.7961 4.50963 10.1176V16.9096ZM10.2535 1.02365H10.2537H10.2535Z" fill="#4477C2"/>
</svg>
